{
  "accessors": [
    {
      "bufferView": 2,
      "componentType": 5126,
      "count": 65532,
      "max": [
        42.703330993652344,
        31.14348030090332,
        89.021942138671875
      ],
      "min": [
        -118.07237243652344,
        -30.939384460449219,
        -89.021942138671875
      ],
      "type": "VEC3"
    },
    {
      "bufferView": 2,
      "byteOffset": 786384,
      "componentType": 5126,
      "count": 65532,
      "max": [
        1,
        0.99999487400054932,
        0.99999731779098511
      ],
      "min": [
        -0.99999845027923584,
        -0.99999767541885376,
        -0.99999874830245972
      ],
      "type": "VEC3"
    },
    {
      "bufferView": 3,
      "componentType": 5126,
      "count": 65532,
      "max": [
        1,
        1,
        0.99999988079071045,
        1
      ],
      "min": [
        -1,
        -0.99999803304672241,
        -0.99999779462814331,
        -1
      ],
      "type": "VEC4"
    },
    {
      "bufferView": 1,
      "componentType": 5126,
      "count": 65532,
      "max": [
        0.9956049919128418,
        0.99797302484512329
      ],
      "min": [
        3.0999999580672011e-05,
        0
      ],
      "type": "VEC2"
    },
    {
      "bufferView": 1,
      "byteOffset": 524256,
      "componentType": 5126,
      "count": 65532,
      "max": [
        0.9956049919128418,
        0.99797302484512329
      ],
      "min": [
        3.0999999580672011e-05,
        0
      ],
      "type": "VEC2"
    },
    {
      "bufferView": 0,
      "componentType": 5125,
      "count": 303708,
      "max": [
        65531
      ],
      "min": [
        0
      ],
      "type": "SCALAR"
    },
    {
      "bufferView": 2,
      "byteOffset": 1572768,
      "componentType": 5126,
      "count": 23183,
      "max": [
        118.07237243652344,
        7.3236398696899414,
        -9.1448001861572266
      ],
      "min": [
        -33.855625152587891,
        -31.14348030090332,
        -67.95538330078125
      ],
      "type": "VEC3"
    },
    {
      "bufferView": 2,
      "byteOffset": 1850964,
      "componentType": 5126,
      "count": 23183,
      "max": [
        0.99999290704727173,
        0.99993270635604858,
        0.99992501735687256
      ],
      "min": [
        -0.99999314546585083,
        -0.9996185302734375,
        -0.99990153312683105
      ],
      "type": "VEC3"
    },
    {
      "bufferView": 3,
      "byteOffset": 1048512,
      "componentType": 5126,
      "count": 23183,
      "max": [
        0.99999982118606567,
        0.9990270733833313,
        0.99999946355819702,
        1
      ],
      "min": [
        -0.99999994039535522,
        -0.99999493360519409,
        -0.99999898672103882,
        -1
      ],
      "type": "VEC4"
    },
    {
      "bufferView": 1,
      "byteOffset": 1048512,
      "componentType": 5126,
      "count": 23183,
      "max": [
        0.99639898538589478,
        0.61932402849197388
      ],
      "min": [
        0.010127999819815159,
        0.0088649988174438477
      ],
      "type": "VEC2"
    },
    {
      "bufferView": 1,
      "byteOffset": 1233976,
      "componentType": 5126,
      "count": 23183,
      "max": [
        0.99639898538589478,
        0.61932402849197388
      ],
      "min": [
        0.010127999819815159,
        0.0088649988174438477
      ],
      "type": "VEC2"
    },
    {
      "bufferView": 0,
      "byteOffset": 1214832,
      "componentType": 5125,
      "count": 121758,
      "max": [
        23182
      ],
      "min": [
        0
      ],
      "type": "SCALAR"
    },
    {
      "bufferView": 2,
      "byteOffset": 2129160,
      "componentType": 5126,
      "count": 394,
      "max": [
        7.1226701736450195,
        22.72715950012207,
        0.71675997972488403
      ],
      "min": [
        -7.071770191192627,
        7.1455597877502441,
        -43.686698913574219
      ],
      "type": "VEC3"
    },
    {
      "bufferView": 2,
      "byteOffset": 2133888,
      "componentType": 5126,
      "count": 394,
      "max": [
        0.98684322834014893,
        0.98304897546768188,
        0.58694928884506226
      ],
      "min": [
        -0.98589503765106201,
        0.15573972463607788,
        -0.37122654914855957
      ],
      "type": "VEC3"
    },
    {
      "bufferView": 1,
      "byteOffset": 1419440,
      "componentType": 5126,
      "count": 394,
      "max": [
        0.97245800495147705,
        0.98263901472091675
      ],
      "min": [
        0.015522000379860401,
        0.026306033134460449
      ],
      "type": "VEC2"
    },
    {
      "bufferView": 0,
      "byteOffset": 1701864,
      "componentType": 5125,
      "count": 972,
      "max": [
        393
      ],
      "min": [
        0
      ],
      "type": "SCALAR"
    }
  ],
  "asset": {
    "extras": {
      "author": "dannysgallegos (https://sketchfab.com/dannysgallegos)",
      "license": "CC-BY-4.0 (http://creativecommons.org/licenses/by/4.0/)",
      "source": "https://sketchfab.com/3d-models/japanese-a6m2-zero-world-war-2-airplane-41510bfe03244a95b462328a1213ca78",
      "title": "Japanese A6M2 Zero World War 2 Airplane"
    },
    "generator": "Sketchfab-9.80.0",
    "version": "2.0"
  },
  "bufferViews": [
    {
      "buffer": 0,
      "byteLength": 1705752,
      "byteOffset": 0,
      "name": "floatBufferViews",
      "target": 34963
    },
    {
      "buffer": 0,
      "byteLength": 1422592,
      "byteOffset": 1705752,
      "byteStride": 8,
      "name": "floatBufferViews",
      "target": 34962
    },
    {
      "buffer": 0,
      "byteLength": 2138616,
      "byteOffset": 3128344,
      "byteStride": 12,
      "name": "floatBufferViews",
      "target": 34962
    },
    {
      "buffer": 0,
      "byteLength": 1419440,
      "byteOffset": 5266960,
      "byteStride": 16,
      "name": "floatBufferViews",
      "target": 34962
    }
  ],
  "buffers": [
    {
      "byteLength": 6686400,
      "uri": "scene.bin"
    }
  ],
  "images": [
    {
      "uri": "textures/body_baseColor.png"
    },
    {
      "uri": "textures/body_normal.png"
    }
  ],
  "materials": [
    {
      "doubleSided": true,
      "emissiveFactor": [
        0,
        0,
        0
      ],
      "name": "body",
      "normalTexture": {
        "index": 1,
        "scale": 1,
        "texCoord": 1
      },
      "pbrMetallicRoughness": {
        "baseColorFactor": [
          1,
          1,
          1,
          1
        ],
        "baseColorTexture": {
          "index": 0,
          "texCoord": 0
        },
        "metallicFactor": 0.1901954167654695,
        "roughnessFactor": 0.2509971483987864
      }
    },
    {
      "alphaMode": "BLEND",
      "doubleSided": true,
      "emissiveFactor": [
        0,
        0,
        0
      ],
      "name": "glass",
      "pbrMetallicRoughness": {
        "baseColorFactor": [
          0,
          0,
          0,
          0.93464176829268297
        ],
        "metallicFactor": 0,
        "roughnessFactor": 0.099275914634146339
      }
    }
  ],
  "meshes": [
    {
      "name": "DrawCall_0155_1_body_0",
      "primitives": [
        {
          "attributes": {
            "NORMAL": 1,
            "POSITION": 0,
            "TANGENT": 2,
            "TEXCOORD_0": 3,
            "TEXCOORD_1": 4
          },
          "indices": 5,
          "material": 0,
          "mode": 4
        }
      ]
    },
    {
      "name": "DrawCall_0155_1_body_0",
      "primitives": [
        {
          "attributes": {
            "NORMAL": 7,
            "POSITION": 6,
            "TANGENT": 8,
            "TEXCOORD_0": 9,
            "TEXCOORD_1": 10
          },
          "indices": 11,
          "material": 0,
          "mode": 4
        }
      ]
    },
    {
      "name": "DrawCall_0155_1_glass_0",
      "primitives": [
        {
          "attributes": {
            "NORMAL": 13,
            "POSITION": 12,
            "TEXCOORD_0": 14
          },
          "indices": 15,
          "material": 1,
          "mode": 4
        }
      ]
    }
  ],
  "nodes": [
    {
      "children": [
        1
      ],
      "name": "RootNode (gltf orientation matrix)",
      "rotation": [
        -0.70710678118654746,
        -0,
        -0,
        0.70710678118654757
      ]
    },
    {
      "children": [
        2
      ],
      "matrix": [
        -0.68021637201309204,
        -0.73301136493682861,
        0,
        0,
        0.73301136493682861,
        -0.68021637201309204,
        0,
        0,
        0,
        0,
        1,
        0,
        2.9824469089508057,
        -8.4437551498413086,
        0,
        1
      ],
      "name": "RootNode (model correction matrix)"
    },
    {
      "children": [
        3
      ],
      "matrix": [
        1,
        0,
        0,
        0,
        0,
        0,
        1,
        0,
        0,
        -1,
        0,
        0,
        0,
        0,
        0,
        1
      ],
      "name": "zero.fbx"
    },
    {
      "children": [
        4
      ],
      "name": "RootNode"
    },
    {
      "children": [
        5,
        6,
        7
      ],
      "matrix": [
        1,
        0,
        0,
        0,
        0,
        1,
        0,
        0,
        0,
        0,
        1,
        0,
        -0.35093000531196594,
        31.0306396484375,
        4.872499942779541,
        1
      ],
      "name": "DrawCall_0155_1"
    },
    {
      "mesh": 0,
      "name": "DrawCall_0155_1_body_0"
    },
    {
      "mesh": 1,
      "name": "DrawCall_0155_1_body_0"
    },
    {
      "mesh": 2,
      "name": "DrawCall_0155_1_glass_0"
    }
  ],
  "samplers": [
    {
      "magFilter": 9729,
      "minFilter": 9987,
      "wrapS": 10497,
      "wrapT": 10497
    }
  ],
  "scene": 0,
  "scenes": [
    {
      "name": "OSG_Scene",
      "nodes": [
        0
      ]
    }
  ],
  "textures": [
    {
      "sampler": 0,
      "source": 0
    },
    {
      "sampler": 0,
      "source": 1
    }
  ]
}

